<?xml version="1.0" encoding="UTF-8" standalone="no"?>
<!-- Created with Inkscape (http://www.inkscape.org/) -->

<svg
   width="178.51523mm"
   height="65.446854mm"
   viewBox="0 0 178.51523 65.446854"
   version="1.1"
   id="svg1"
   xml:space="preserve"
   xmlns="http://www.w3.org/2000/svg"
   xmlns:svg="http://www.w3.org/2000/svg"><defs
     id="defs1" /><g
     id="layer1"
     transform="translate(219.33958,-580.23133)"><g
       id="g6"><path
         id="path3-7-2-1"
         style="fill:#000000"
         d="m -191.30925,580.30063 c -24.09005,1.76772 -28.85694,36.29728 -19.45618,47.77486 v 5.1e-4 c 3.36649,4.11016 15.04423,10.14171 20.94394,-1.10432 0.41672,-0.79434 0.85839,-1.37948 0.71004,-1.52342 -0.0366,-0.0355 -0.10892,-0.0443 -0.22634,-0.0227 0,0 -1.70146,-0.27691 -2.85151,-0.57257 -8.38543,8.48323 -15.45512,1.58904 -14.01827,-8.28735 0.20932,-1.08305 0.19039,-1.13791 -0.34261,-1.01028 -0.99147,0.2374 -2.89813,0.58673 -3.74809,0.014 2.39666,-0.66982 4.58456,-2.90514 6.26525,-4.84931 1.04918,-1.22828 2.215,-0.85111 1.01441,1.79472 -0.61004,1.34441 -0.58642,2.59012 -0.4408,2.60604 0.65956,0.0721 -0.1675,-1.45229 4.74493,-3.12074 2.20244,-0.74802 3.60663,-2.02737 4.44469,-4.04936 0.61097,-1.47407 0.61084,-1.47395 1.36322,-0.15658 1.07515,1.88253 2.47535,2.73398 4.70152,2.85977 7.4997,0.42353 9.91607,-9.33746 7.62486,-13.97744 -3.43443,-6.95511 -11.14063,-6.22891 -13.95729,-1.05833 -0.79251,1.45521 -0.79236,1.45539 -0.79736,-0.11472 -0.0177,-5.78238 6.48865,-8.77792 12.58372,-5.79345 6.25988,3.06514 7.76402,12.12777 4.66949,17.92707 -3.37232,5.68183 -6.79256,6.21362 -12.62766,6.49625 -5.89548,0.003 -11.84499,2.01204 -13.03279,8.53901 -0.29268,2.17025 2.45909,4.43125 5.39295,4.43125 1.54237,0 2.21589,-0.44269 2.21589,-1.45675 0.16658,-3.19608 2.02863,-3.2993 4.65708,-3.30575 7.37956,0 12.09757,-1.6052 16.33078,-5.55625 14.25828,-13.30795 4.93028,-38.03196 -16.16387,-36.48407 z m -11.61634,18.67483 c 0.76093,-1.2e-4 1.37781,0.61676 1.37769,1.37769 1.1e-4,0.76093 -0.61677,1.37781 -1.37769,1.37769 -0.76073,-1.7e-4 -1.3773,-0.61696 -1.37718,-1.37769 -1.2e-4,-0.76073 0.61645,-1.37752 1.37718,-1.37769 z m -12.98061,15.37322 c -0.92653,0.93852 -2.13505,1.35956 -3.43338,1.61644 1.11786,0.69777 2.30034,1.0077 3.51141,1.14618 -0.32402,-0.77189 -0.24841,-1.74355 -0.078,-2.76262 z m 66.24453,6.011 v 18.70273 h 3.36104 v -5.41982 c 0,-1.44694 0.0496,-2.37298 0.14883,-2.77812 0.19017,-0.78549 0.52916,-1.4056 1.01699,-1.86036 0.49609,-0.45475 1.08727,-0.68213 1.77353,-0.68213 0.52917,0 0.97152,0.13643 1.32706,0.40928 0.3638,0.27285 0.62011,0.68627 0.76894,1.24024 0.14883,0.55397 0.22324,1.6123 0.22324,3.175 v 5.91591 h 3.33623 v -8.91728 c 0,-1.55443 -0.39274,-2.73265 -1.17822,-3.53467 -0.91777,-0.92604 -2.04639,-1.38906 -3.38584,-1.38906 -0.68626,0 -1.36426,0.14469 -2.03398,0.43408 -0.66973,0.28112 -1.33532,0.70693 -1.99678,1.27744 v -6.57324 z m 66.451762,0 c -1.703255,0 -3.294889,0.42995 -4.774902,1.28984 -1.471745,0.85163 -2.629297,2.00918 -3.472656,3.47266 -0.84336,1.46348 -1.265039,3.06751 -1.265039,4.81211 0,2.60449 0.905371,4.85345 2.716113,6.74687 1.810742,1.89343 4.084505,2.84014 6.821289,2.84014 2.61276,0 4.83278,-0.92191 6.660059,-2.76572 1.835546,-1.84382 2.75332,-4.09691 2.75332,-6.75928 0,-2.68717 -0.930176,-4.96507 -2.790528,-6.83369 -1.852083,-1.86862 -4.067968,-2.80293 -6.647656,-2.80293 z m -74.199092,0.23564 v 4.97334 h -1.73632 v 2.91456 h 1.73632 v 10.57919 h 3.37344 v -10.57919 h 2.00918 v -2.91456 h -2.00918 v -4.97334 z m 74.161885,3.1626 c 1.670183,0 3.088184,0.60358 4.254004,1.81074 1.16582,1.1989 1.748731,2.66651 1.748731,4.40284 0,1.74459 -0.578776,3.2122 -1.736329,4.40283 -1.157552,1.19062 -2.559016,1.78594 -4.204394,1.78594 -1.455208,0 -2.745052,-0.45889 -3.869531,-1.37666 -1.44694,-1.17409 -2.17041,-2.76986 -2.17041,-4.78731 0,-1.81074 0.574642,-3.30316 1.723925,-4.47725 1.149284,-1.17408 2.567286,-1.76113 4.254004,-1.76113 z m -95.448435,1.46348 c -0.62012,0 -1.19062,0.17363 -1.71152,0.5209 -0.5209,0.34726 -0.93845,0.85576 -1.25264,1.52549 v -1.69913 h -2.90215 v 13.49375 h 3.36104 v -5.45703 l -0.0124,-0.65732 c 0,-1.88516 0.17777,-3.1502 0.53331,-3.79512 0.3638,-0.64492 0.80615,-0.96738 1.32705,-0.96738 0.25631,0 0.58291,0.0992 0.97978,0.29766 l 1.0542,-2.91456 c -0.47956,-0.23151 -0.93844,-0.34726 -1.37666,-0.34726 z m 9.29762,0 c -1.76113,0 -3.25768,0.66559 -4.48964,1.99678 -1.23197,1.33118 -1.84795,3.03857 -1.84795,5.12216 0,2.00918 0.63665,3.69177 1.90996,5.04776 1.27331,1.34772 2.78226,2.02158 4.52685,2.02158 0.77721,0 1.49655,-0.13643 2.15801,-0.40928 0.66973,-0.28112 1.33532,-0.73587 1.99677,-1.36426 v 1.42627 h 3.37344 v -13.49375 h -3.37344 v 1.48829 c -0.60358,-0.61185 -1.2609,-1.07074 -1.97197,-1.37666 -0.71107,-0.30593 -1.47174,-0.45889 -2.28203,-0.45889 z m 41.21299,0 c -1.76113,0 -3.25768,0.66559 -4.48965,1.99678 -1.23197,1.33118 -1.84795,3.03857 -1.84795,5.12216 0,2.00918 0.63666,3.69177 1.90996,5.04776 1.27331,1.34772 2.78226,2.02158 4.52686,2.02158 0.77721,0 1.49655,-0.13643 2.15801,-0.40928 0.66972,-0.28112 1.33531,-0.73587 1.99677,-1.36426 v 1.42627 h 3.37344 v -13.49375 h -3.37344 v 1.48829 c -0.60358,-0.61185 -1.2609,-1.07074 -1.97197,-1.37666 -0.71107,-0.30593 -1.47174,-0.45889 -2.28203,-0.45889 z m 19.19469,0 c -0.83509,0 -1.60817,0.1571 -2.31924,0.47129 -0.70279,0.31419 -1.34358,0.78961 -1.92236,1.42627 v -1.5503 h -3.39824 v 13.49375 h 3.39824 v -6.00273 c 0,-1.29811 0.11162,-2.24896 0.33486,-2.85254 0.23152,-0.60358 0.57465,-1.07073 1.0294,-1.40146 0.46302,-0.339 0.97565,-0.5085 1.53789,-0.5085 0.50436,0 0.93431,0.13229 1.28984,0.39687 0.35554,0.26459 0.62012,0.66973 0.79375,1.21543 0.1819,0.53744 0.27286,1.40974 0.27286,2.6169 v 6.53603 h 3.41064 v -6.08955 c 0,-1.28984 0.11162,-2.22415 0.33486,-2.80293 0.22325,-0.58704 0.56224,-1.04593 1.017,-1.37666 0.46302,-0.33073 0.98391,-0.49609 1.56269,-0.49609 0.76068,0 1.33119,0.27285 1.711525,0.81855 0.380338,0.53744 0.570508,1.57097 0.570508,3.10059 v 6.84609 h 3.410644 v -7.91269 c 0,-1.62057 -0.16123,-2.79053 -0.483691,-3.50986 -0.314193,-0.71934 -0.835092,-1.30225 -1.562696,-1.74873 -0.727604,-0.44649 -1.570963,-0.66973 -2.53008,-0.66973 -0.92604,0 -1.7818,0.2067 -2.56728,0.62012 -0.77722,0.41341 -1.43454,1.01699 -1.97198,1.81074 -0.41341,-0.79375 -0.95911,-1.39733 -1.63711,-1.81074 -0.67799,-0.41342 -1.43867,-0.62012 -2.28203,-0.62012 z m 46.029235,0 c -0.65319,0 -1.293977,0.12816 -1.922363,0.38447 -0.620117,0.24805 -1.314648,0.69453 -2.083594,1.33945 v -1.37666 h -3.373437 v 13.49375 h 3.373438 v -5.41982 c 0,-1.4056 0.04961,-2.31924 0.148828,-2.74092 0.190169,-0.81028 0.529166,-1.4428 1.016992,-1.89756 0.496093,-0.46302 1.087272,-0.69453 1.773535,-0.69453 0.529167,0 0.971517,0.14056 1.327051,0.42168 0.363802,0.27285 0.615983,0.67386 0.756543,1.20303 0.148828,0.52917 0.223242,1.5999 0.223242,3.21221 v 5.91591 h 3.348633 v -8.91728 c 0,-1.55443 -0.392741,-2.72852 -1.178223,-3.52227 -0.93431,-0.93431 -2.071191,-1.40146 -3.410645,-1.40146 z m 14.742253,0 c -2.000911,0 -3.66696,0.68213 -4.998144,2.04639 -1.322917,1.35598 -1.984375,3.06337 -1.984375,5.12216 0,2.00918 0.665592,3.6835 1.996777,5.02295 1.331185,1.33119 3.055111,1.99678 5.171777,1.99678 1.364258,0 2.542481,-0.23978 3.534668,-0.71934 0.992188,-0.48782 1.843815,-1.2361 2.554883,-2.24482 l -2.852539,-1.33945 c -0.909505,0.8847 -1.996777,1.32705 -3.261816,1.32705 -1.058334,0 -1.930632,-0.28112 -2.616895,-0.84336 -0.677995,-0.57051 -1.09554,-1.33532 -1.252637,-2.29444 h 10.876856 l 0.0124,-0.64492 c 0,-2.23242 -0.665592,-4.02663 -1.996777,-5.38261 -1.331185,-1.36426 -3.059245,-2.04639 -5.18418,-2.04639 z m 0.161231,2.86494 c 0.868164,0 1.628841,0.23564 2.282031,0.70693 0.661458,0.47129 1.103808,1.08314 1.327051,1.83555 h -7.329786 c 0.380339,-0.83509 0.79375,-1.418 1.240235,-1.74873 0.711068,-0.52917 1.53789,-0.79375 2.480469,-0.79375 z m -120.645869,0.26045 c 1.07487,0 1.96371,0.3638 2.66651,1.09141 0.7028,0.7276 1.0542,1.67845 1.0542,2.85253 0,1.1989 -0.3514,2.17041 -1.0542,2.91456 -0.7028,0.73587 -1.5875,1.1038 -2.65411,1.1038 -1.03352,0 -1.90582,-0.3762 -2.61689,-1.12861 -0.7028,-0.75241 -1.0542,-1.71152 -1.0542,-2.87734 0,-1.15756 0.34727,-2.10427 1.0418,-2.84014 0.69453,-0.74414 1.56683,-1.11621 2.61689,-1.11621 z m 41.21299,0 c 1.07487,0 1.9637,0.3638 2.6665,1.09141 0.7028,0.7276 1.0542,1.67845 1.0542,2.85253 0,1.1989 -0.3514,2.17041 -1.0542,2.91456 -0.7028,0.73587 -1.5875,1.1038 -2.6541,1.1038 -1.03352,0 -1.90582,-0.3762 -2.61689,-1.12861 -0.7028,-0.75241 -1.0542,-1.71152 -1.0542,-2.87734 0,-1.15756 0.34727,-2.10427 1.0418,-2.84014 0.69453,-0.74414 1.56683,-1.11621 2.61689,-1.11621 z m -77.56839,5.99653 -0.19947,11.32903 c 8.47411,0.28181 9.74555,-9.7436 9.0749,-10.76214 0,0 -4.30145,0.8085 -8.87543,-0.56689 z" /><path
         id="text4-8-2"
         style="font-style:normal;font-variant:normal;font-weight:bold;font-stretch:normal;font-size:25.4px;font-family:'Century Gothic';-inkscape-font-specification:'Century Gothic Bold';letter-spacing:0.529167px;writing-mode:lr-tb;direction:ltr;fill:#ff6200;stroke:#c9a84c;stroke-width:0.264583;stroke-opacity:0.419608"
         d="m -83.128736,620.37006 c -1.703255,0 -3.294889,0.42995 -4.774902,1.28984 -1.471745,0.85163 -2.629297,2.00918 -3.472657,3.47266 -0.843359,1.46347 -1.265039,3.06751 -1.265039,4.81211 0,2.60449 0.905371,4.85345 2.716114,6.74687 1.810742,1.89343 4.084505,2.84014 6.821289,2.84014 2.61276,0 4.83278,-0.92191 6.660059,-2.76572 1.835546,-1.84382 2.75332,-4.09691 2.75332,-6.75928 0,-2.68718 -0.930176,-4.96507 -2.790527,-6.83369 -1.852084,-1.86862 -4.06797,-2.80293 -6.647657,-2.80293 z m -0.03721,3.39824 c 1.670182,0 3.088184,0.60358 4.254004,1.81074 1.16582,1.1989 1.748731,2.66651 1.748731,4.40283 0,1.7446 -0.578776,3.21221 -1.736329,4.40284 -1.157552,1.19062 -2.559017,1.78593 -4.204394,1.78593 -1.455209,0 -2.745052,-0.45888 -3.869532,-1.37666 -1.44694,-1.17408 -2.17041,-2.76985 -2.17041,-4.7873 0,-1.81074 0.574642,-3.30316 1.723926,-4.47725 1.149284,-1.17409 2.567285,-1.76113 4.254004,-1.76113 z m 20.2861,1.46348 c -0.65319,0 -1.293977,0.12815 -1.922363,0.38447 -0.620117,0.24805 -1.314648,0.69453 -2.083594,1.33945 v -1.37666 h -3.373434 v 13.49375 h 3.373437 v -5.41982 c 0,-1.4056 0.04961,-2.31924 0.148829,-2.74092 0.190169,-0.81029 0.529166,-1.44281 1.016992,-1.89756 0.496094,-0.46302 1.087272,-0.69453 1.773535,-0.69453 0.529167,0 0.971517,0.14056 1.327051,0.42168 0.363802,0.27285 0.615983,0.67386 0.756543,1.20303 0.148828,0.52916 0.223242,1.5999 0.223242,3.2122 v 5.91592 h 3.348632 v -8.91728 c 0,-1.55443 -0.392741,-2.72852 -1.178222,-3.52227 -0.93431,-0.93431 -2.071191,-1.40146 -3.410645,-1.40146 z m 14.742253,0 c -2.000912,0 -3.66696,0.68213 -4.998145,2.04638 -1.322916,1.35599 -1.984375,3.06338 -1.984375,5.12217 0,2.00918 0.665593,3.6835 1.996778,5.02295 1.331184,1.33119 3.05511,1.99678 5.171777,1.99678 1.364258,0 2.54248,-0.23978 3.534668,-0.71934 0.992187,-0.48782 1.843815,-1.2361 2.554883,-2.24482 l -2.852539,-1.33946 c -0.909506,0.88471 -1.996778,1.32706 -3.261817,1.32706 -1.058333,0 -1.930631,-0.28112 -2.616894,-0.84336 -0.677995,-0.57051 -1.095541,-1.33532 -1.252637,-2.29444 h 10.876858 l 0.0124,-0.64492 c 0,-2.23242 -0.665593,-4.02663 -1.996778,-5.38262 -1.331184,-1.36425 -3.059244,-2.04638 -5.184179,-2.04638 z m 0.16123,2.86494 c 0.868164,0 1.628841,0.23564 2.282031,0.70693 0.661459,0.47129 1.103809,1.08314 1.327051,1.83555 h -7.329785 c 0.380339,-0.83509 0.79375,-1.418 1.240234,-1.74873 0.711068,-0.52917 1.537891,-0.79375 2.480469,-0.79375 z" /></g></g></svg>
