<svg width="220" height="80" viewBox="0 0 220 80" xmlns="http://www.w3.org/2000/svg">
  <!-- Elephant Icon -->
  <g transform="translate(0, 0) scale(1)">
    <path id="elephant" fill="#c9a84c" d="m 28,0.1 c -24.1,1.8 -28.9,36.3 -19.5,47.8 v 0 c 3.4,4.1 15,10.1 20.9,-1.1 0.4,-0.8 0.9,-1.4 0.7,-1.5 -0.0,-0.0 -0.1,-0.0 -0.2,-0.0 0,0 -1.7,-0.3 -2.9,-0.6 -8.4,8.5 -15.5,1.6 -14,-8.3 0.2,-1.1 0.2,-1.1 -0.3,-1 -1,0.2 -2.9,0.6 -3.7,0 2.4,-0.7 4.6,-2.9 6.3,-4.8 1,-1.2 2.2,-0.9 1,1.8 -0.6,1.4 -0.6,2.6 -0.4,2.6 0.7,0.1 -0.2,-1.5 4.7,-3.1 2.2,-0.7 3.6,-2 4.4,-4 0.6,-1.5 0.6,-1.5 1.4,-0.2 1.1,1.9 2.5,2.7 4.7,2.9 7.5,0.4 9.9,-9.3 7.6,-14 -3.4,-7 -11.1,-6.2 -14,-1.1 -0.8,1.5 -0.8,1.5 -0.8,-0.1 0,-5.8 6.5,-8.8 12.6,-5.8 6.3,3.1 7.8,12.1 4.7,17.9 -3.4,5.7 -6.8,6.2 -12.6,6.5 -5.9,0 -11.8,2 -13,8.5 -0.3,2.2 2.5,4.4 5.4,4.4 1.5,0 2.2,-0.4 2.2,-1.5 0.2,-3.2 2,-3.3 4.7,-3.3 7.4,0 12.1,-1.6 16.3,-5.6 14.3,-13.3 4.9,-38 -16.2,-36.5 z m -11.6,18.7 c 0.8,-0 1.4,0.6 1.4,1.4 0,0.8 -0.6,1.4 -1.4,1.4 -0.8,-0 -1.4,-0.6 -1.4,-1.4 0,-0.8 0.6,-1.4 1.4,-1.4 z m -13,15.4 c -0.9,0.9 -2.1,1.4 -3.4,1.6 1.1,0.7 2.3,1 3.5,1.1 -0.3,-0.8 -0.2,-1.7 -0.1,-2.8 z m 66.2,6 v 18.7 h 3.4 v -5.4 c 0,-1.4 0,-2.4 0.1,-2.8 0.2,-0.8 0.5,-1.4 1,-1.9 0.5,-0.5 1.1,-0.7 1.8,-0.7 0.5,0 1,0.1 1.3,0.4 0.4,0.3 0.6,0.7 0.8,1.2 0.1,0.6 0.2,1.6 0.2,3.2 v 5.9 h 3.3 v -8.9 c 0,-1.6 -0.4,-2.7 -1.2,-3.5 -0.9,-0.9 -2,-1.4 -3.4,-1.4 -0.7,0 -1.4,0.1 -2,0.4 -0.7,0.3 -1.3,0.7 -2,1.3 v -6.6 z m 66.5,0 c -1.7,0 -3.3,0.4 -4.8,1.3 -1.5,0.9 -2.6,2 -3.5,3.5 -0.8,1.5 -1.3,3.1 -1.3,4.8 0,2.6 0.9,4.9 2.7,6.7 1.8,1.9 4.1,2.8 6.8,2.8 2.6,0 4.8,-0.9 6.7,-2.8 1.8,-1.8 2.8,-4.1 2.8,-6.8 0,-2.7 -0.9,-5 -2.8,-6.8 -1.9,-1.9 -4.1,-2.8 -6.6,-2.8 z m -74.2,0.2 v 5 h -1.7 v 2.9 h 1.7 v 10.6 h 3.4 v -10.6 h 2 v -2.9 h -2 v -5 z m 74.2,3.2 c 1.7,0 3.1,0.6 4.3,1.8 1.2,1.2 1.7,2.7 1.7,4.4 0,1.7 -0.6,3.2 -1.7,4.4 -1.2,1.2 -2.6,1.8 -4.2,1.8 -1.5,0 -2.7,-0.5 -3.9,-1.4 -1.4,-1.2 -2.2,-2.8 -2.2,-4.8 0,-1.8 0.6,-3.3 1.7,-4.5 1.1,-1.2 2.6,-1.8 4.3,-1.8 z m -95.4,1.5 c -0.6,0 -1.2,0.2 -1.7,0.5 -0.5,0.3 -0.9,0.9 -1.3,1.5 v -1.7 h -2.9 v 13.5 h 3.4 v -5.5 l 0,-0.7 c 0,-1.9 0.2,-3.2 0.5,-3.8 0.4,-0.6 0.8,-1 1.3,-1 0.3,0 0.6,0.1 1,0.3 l 1.1,-2.9 c -0.5,-0.2 -0.9,-0.3 -1.4,-0.3 z m 9.3,0 c -1.8,0 -3.3,0.7 -4.5,2 -1.2,1.3 -1.8,3 -1.8,5.1 0,2 0.6,3.7 1.9,5 1.3,1.3 2.8,2 4.5,2 0.8,0 1.5,-0.1 2.2,-0.4 0.7,-0.3 1.3,-0.7 2,-1.4 v 1.4 h 3.4 v -13.5 h -3.4 v 1.5 c -0.6,-0.6 -1.3,-1.1 -2,-1.4 -0.7,-0.3 -1.5,-0.5 -2.3,-0.5 z m 41.2,0 c -1.8,0 -3.3,0.7 -4.5,2 -1.2,1.3 -1.8,3 -1.8,5.1 0,2 0.7,3.7 1.9,5 1.3,1.3 2.8,2 4.5,2 0.8,0 1.5,-0.1 2.2,-0.4 0.7,-0.3 1.3,-0.7 2,-1.4 v 1.4 h 3.4 v -13.5 h -3.4 v 1.5 c -0.6,-0.6 -1.3,-1.1 -2,-1.4 -0.7,-0.3 -1.5,-0.5 -2.3,-0.5 z m 19.2,0 c -0.8,0 -1.6,0.2 -2.3,0.5 -0.7,0.3 -1.3,0.8 -1.9,1.4 v -1.6 h -3.4 v 13.5 h 3.4 v -6 c 0,-1.3 0.1,-2.2 0.3,-2.9 0.2,-0.6 0.6,-1.1 1,-1.4 0.5,-0.3 1,-0.5 1.5,-0.5 0.5,0 0.9,0.1 1.3,0.4 0.4,0.3 0.6,0.7 0.8,1.2 0.2,0.5 0.3,1.4 0.3,2.6 v 6.5 h 3.4 v -6.1 c 0,-1.3 0.1,-2.2 0.3,-2.8 0.2,-0.6 0.6,-1 1,-1.4 0.5,-0.3 1,-0.5 1.6,-0.5 0.8,0 1.3,0.3 1.7,0.8 0.4,0.5 0.6,1.6 0.6,3.1 v 6.8 h 3.4 v -7.9 c 0,-1.6 -0.2,-2.8 -0.5,-3.5 -0.3,-0.7 -0.8,-1.3 -1.6,-1.7 -0.7,-0.4 -1.6,-0.7 -2.5,-0.7 -0.9,0 -1.8,0.2 -2.6,0.6 -0.8,0.4 -1.4,1 -2,1.8 -0.4,-0.8 -1,-1.4 -1.6,-1.8 -0.7,-0.4 -1.4,-0.6 -2.3,-0.6 z m 46,0 c -0.7,0 -1.3,0.1 -1.9,0.4 -0.6,0.2 -1.3,0.7 -2.1,1.3 v -1.4 h -3.4 v 13.5 h 3.4 v -5.4 c 0,-1.4 0,-2.3 0.1,-2.7 0.2,-0.8 0.5,-1.4 1,-1.9 0.5,-0.5 1.1,-0.7 1.8,-0.7 0.5,0 1,0.1 1.3,0.4 0.4,0.3 0.6,0.7 0.8,1.2 0.1,0.5 0.2,1.6 0.2,3.2 v 5.9 h 3.3 v -8.9 c 0,-1.6 -0.4,-2.7 -1.2,-3.5 -0.9,-0.9 -2.1,-1.4 -3.4,-1.4 z m 14.7,0 c -2,0 -3.7,0.7 -5,2 -1.3,1.4 -2,3.1 -2,5.1 0,2 0.7,3.7 2,5 1.3,1.3 3.1,2 5.2,2 1.4,0 2.5,-0.2 3.5,-0.7 1,-0.5 1.8,-1.2 2.6,-2.2 l -2.9,-1.3 c -0.9,0.9 -2,1.3 -3.3,1.3 -1.1,0 -1.9,-0.3 -2.6,-0.8 -0.7,-0.6 -1.1,-1.3 -1.3,-2.3 h 10.9 l 0,-0.6 c 0,-2.2 -0.7,-4 -2,-5.4 -1.3,-1.4 -3.1,-2 -5.2,-2 z m 0.2,2.9 c 0.9,0 1.6,0.2 2.3,0.7 0.7,0.5 1.1,1.1 1.3,1.8 h -7.3 c 0.4,-0.8 0.8,-1.4 1.2,-1.7 0.7,-0.5 1.5,-0.8 2.5,-0.8 z m -120.6,0.3 c 1.1,0 2,0.4 2.7,1.1 0.7,0.7 1.1,1.7 1.1,2.9 0,1.2 -0.4,2.2 -1.1,2.9 -0.7,0.7 -1.6,1.1 -2.7,1.1 -1,0 -1.9,-0.4 -2.6,-1.1 -0.7,-0.8 -1.1,-1.7 -1.1,-2.9 0,-1.2 0.3,-2.1 1,-2.8 0.7,-0.7 1.6,-1.1 2.6,-1.1 z m 41.2,0 c 1.1,0 2,0.4 2.7,1.1 0.7,0.7 1.1,1.7 1.1,2.9 0,1.2 -0.4,2.2 -1.1,2.9 -0.7,0.7 -1.6,1.1 -2.7,1.1 -1,0 -1.9,-0.4 -2.6,-1.1 -0.7,-0.8 -1.1,-1.7 -1.1,-2.9 0,-1.2 0.3,-2.1 1,-2.8 0.7,-0.7 1.6,-1.1 2.6,-1.1 z m -77.6,6 -0.2,11.3 c 8.5,0.3 9.7,-9.7 9.1,-10.8 0,0 -4.3,0.8 -8.9,-0.6 z" />
  </g>
</svg>
