<?xml version="1.0" encoding="UTF-8" standalone="no"?>
<!-- Created with Inkscape (http://www.inkscape.org/) -->

<svg
   width="51.029057mm"
   height="65.446854mm"
   viewBox="0 0 51.029057 65.446854"
   version="1.1"
   id="svg1"
   xml:space="preserve"
   xmlns="http://www.w3.org/2000/svg"
   xmlns:svg="http://www.w3.org/2000/svg"><defs
     id="defs1" /><path
     d="M 28.03033,0.06930445 C 3.94028,1.8370244 -0.82661,36.366584 8.5741505,47.844164 v 5.1e-4 c 3.3664895,4.11016 15.0442295,10.14171 20.9439395,-1.10432 0.41672,-0.79434 0.85839,-1.37948 0.71004,-1.52342 -0.0366,-0.0355 -0.10892,-0.0443 -0.22634,-0.0227 0,0 -1.70146,-0.27691 -2.85151,-0.57257 -8.38543,8.48323 -15.455121,1.58904 -14.018271,-8.28735 0.20932,-1.08305 0.19039,-1.13791 -0.34261,-1.01028 -0.99147,0.2374 -2.8981295,0.58673 -3.7480895,0.014 2.3966595,-0.66982 4.5845595,-2.90514 6.2652505,-4.84931 1.04918,-1.22828 2.215,-0.85111 1.01441,1.79472 -0.61004,1.34441 -0.58642,2.59012 -0.4408,2.60604 0.65956,0.0721 -0.1675,-1.45229 4.74493,-3.12074 2.20244,-0.74802 3.60663,-2.02737 4.44469,-4.04936 0.61097,-1.47407 0.61084,-1.47395 1.36322,-0.15658 1.07515,1.88253 2.47535,2.73398 4.70152,2.85977 7.4997,0.42353 9.91607,-9.33746 7.62486,-13.97744 -3.43443,-6.9551096 -11.14063,-6.22891 -13.95729,-1.05833 -0.79251,1.45521 -0.79236,1.45539 -0.79736,-0.11472 -0.0177,-5.7823796 6.48865,-8.7779196 12.58372,-5.7934496 6.25988,3.0651396 7.76402,12.1277696 4.66949,17.9270696 -3.37232,5.68183 -6.79256,6.21362 -12.62766,6.49625 -5.89548,0.003 -11.84499,2.01204 -13.03279,8.53901 -0.29268,2.17025 2.45909,4.43125 5.39295,4.43125 1.54237,0 2.21589,-0.44269 2.21589,-1.45675 0.16658,-3.19608 2.02863,-3.2993 4.65708,-3.30575 7.37956,0 12.09757,-1.6052 16.33078,-5.55625 C 58.45248,23.245514 49.12448,-1.4784956 28.03033,0.06939445 Z M 16.41399,18.744134 c 0.76093,-1.2e-4 1.37781,0.61676 1.377691,1.37769 1.09e-4,0.76093 -0.61677,1.37781 -1.377691,1.37769 -0.760729,-1.7e-4 -1.377299,-0.61696 -1.377179,-1.37769 -1.2e-4,-0.76073 0.61645,-1.37752 1.377179,-1.37769 z M 3.43338,34.117354 C 2.50685,35.055874 1.29833,35.476914 0,35.733794 c 1.11786,0.69777 2.30034,1.0077 3.51141,1.14618 -0.32402,-0.77189 -0.24841,-1.74355 -0.078,-2.76262 z m 10.847399,19.99464 -0.19947,11.32903 c 8.474111,0.28181 9.745551,-9.7436 9.074901,-10.76214 0,0 -4.30145,0.8085 -8.875431,-0.56689 z"
     style="fill:#c9a84c"
     id="path1" /></svg>
